<svg width="40" height="40" viewBox="0 0 40 40" fill="none" xmlns="http://www.w3.org/2000/svg">
<rect x="0.5" y="0.5" width="39" height="39" rx="4.5" fill="black" stroke="#323232"/>
<path fill-rule="evenodd" clip-rule="evenodd" d="M22.3689 9.39562C23.0712 8.56892 24.439 9.13387 24.3279 10.2049L23.5434 17.7281H29.8893C30.1004 17.7282 30.3071 17.7873 30.4853 17.8985C30.6634 18.0098 30.8056 18.1685 30.8951 18.3562C30.9847 18.5439 31.0179 18.7527 30.9909 18.9582C30.9639 19.1638 30.8778 19.3575 30.7426 19.5167L19.6311 32.6044C18.9288 33.4311 17.561 32.8661 17.6721 31.7951L18.4566 24.2719H12.1107C11.8996 24.2718 11.6929 24.2127 11.5147 24.1015C11.3366 23.9902 11.1944 23.8315 11.1049 23.6438C11.0153 23.4561 10.9821 23.2473 11.0091 23.0418C11.0361 22.8362 11.1222 22.6425 11.2574 22.4833L22.3689 9.39562ZM14.4831 22.0906H20.4255C20.4876 22.0906 20.5491 22.1034 20.6059 22.1282C20.6626 22.1529 20.7135 22.189 20.7552 22.2342C20.7968 22.2795 20.8284 22.3327 20.8478 22.3907C20.8672 22.4486 20.874 22.5099 20.8678 22.5705L20.2533 28.4654L27.5169 19.9094H21.5745C21.5124 19.9094 21.4509 19.8966 21.3942 19.8719C21.3374 19.8471 21.2865 19.811 21.2448 19.7658C21.2032 19.7205 21.1716 19.6673 21.1522 19.6093C21.1328 19.5514 21.126 19.4901 21.1322 19.4295L21.7467 13.5357L14.4831 22.0906Z" fill="#323232"/>
<g filter="url(#filter0_d_1_180)">
<path fill-rule="evenodd" clip-rule="evenodd" d="M20.9374 8.41211C21.6748 7.55096 23.111 8.13945 22.9943 9.25508L22.1706 17.0918H28.8337C29.0554 17.0918 29.2725 17.1534 29.4595 17.2693C29.6466 17.3852 29.7959 17.5505 29.8899 17.746C29.9839 17.9415 30.0188 18.1591 29.9904 18.3732C29.9621 18.5873 29.8716 18.7891 29.7298 18.9549L18.0626 32.5879C17.3252 33.449 15.889 32.8606 16.0057 31.7449L16.8294 23.9082H10.1663C9.94459 23.9082 9.72751 23.8466 9.54046 23.7307C9.35341 23.6148 9.20414 23.4495 9.11012 23.254C9.0161 23.0585 8.98123 22.8409 9.00959 22.6268C9.03794 22.4127 9.12836 22.2109 9.27024 22.0451L20.9374 8.41211ZM12.6572 21.6361H18.8968C18.962 21.6361 19.0265 21.6494 19.0861 21.6752C19.1458 21.7009 19.1992 21.7386 19.2429 21.7857C19.2867 21.8328 19.3198 21.8883 19.3402 21.9486C19.3605 22.0089 19.3677 22.0728 19.3612 22.136L18.716 28.2765L26.3428 19.3639H20.1032C20.038 19.3639 19.9735 19.3506 19.9139 19.3248C19.8542 19.2991 19.8008 19.2614 19.7571 19.2143C19.7133 19.1672 19.6802 19.1117 19.6598 19.0514C19.6395 18.9911 19.6323 18.9272 19.6388 18.864L20.284 12.7247L12.6572 21.6361Z" fill="#D9D9D9"/>
</g>
<path fill-rule="evenodd" clip-rule="evenodd" d="M9.5675 21.693L9.26832 22.0451C9.12745 22.211 9.03767 22.4128 9.00952 22.6269C8.98136 22.841 9.01598 23.0585 9.10933 23.254C9.20268 23.4495 9.3509 23.6149 9.53661 23.7307C9.72233 23.8466 9.93787 23.9082 10.158 23.9083H16.7737L15.9559 31.7449C15.84 32.8606 17.266 33.4491 17.9981 32.5879L27.2557 21.693H24.2405L18.6468 28.2765L19.2875 22.136C19.2939 22.0728 19.2868 22.009 19.2666 21.9486C19.2464 21.8883 19.2135 21.8328 19.17 21.7857C19.1357 21.7485 19.0955 21.7172 19.0509 21.693H9.5675Z" fill="#6AA39C"/>
<path fill-rule="evenodd" clip-rule="evenodd" d="M22.9497 9.25508C23.0655 8.13945 21.6395 7.55096 20.9074 8.41211L9.62244 21.693H19.1058C19.0939 21.6865 19.0818 21.6806 19.0693 21.6751C19.0101 21.6494 18.9461 21.6361 18.8813 21.6361H12.6861L20.2587 12.7247L19.6181 18.864C19.6116 18.9272 19.6187 18.9911 19.6389 19.0514C19.6592 19.1117 19.692 19.1672 19.7355 19.2143C19.7789 19.2614 19.832 19.2991 19.8911 19.3248C19.9503 19.3506 20.0144 19.3639 20.0791 19.3639H26.2743L24.2955 21.693H27.3107L29.6372 18.9549C29.7781 18.7891 29.8679 18.5873 29.896 18.3732C29.9242 18.1591 29.8896 17.9415 29.7962 17.746C29.7029 17.5505 29.5546 17.3852 29.3689 17.2693C29.1832 17.1534 28.9677 17.0918 28.7476 17.0918H22.1318L22.9497 9.25508Z" fill="#FFC151"/>
<rect x="0.5" y="0.5" width="39" height="39" rx="4.5" fill="black" stroke="#323232"/>
<path fill-rule="evenodd" clip-rule="evenodd" d="M22.3689 9.39562C23.0712 8.56892 24.439 9.13387 24.3279 10.2049L23.5434 17.7281H29.8893C30.1004 17.7282 30.3071 17.7873 30.4853 17.8985C30.6634 18.0098 30.8056 18.1685 30.8951 18.3562C30.9847 18.5439 31.0179 18.7527 30.9909 18.9582C30.9639 19.1638 30.8778 19.3575 30.7426 19.5167L19.6311 32.6044C18.9288 33.4311 17.561 32.8661 17.6721 31.7951L18.4566 24.2719H12.1107C11.8996 24.2718 11.6929 24.2127 11.5147 24.1015C11.3366 23.9902 11.1944 23.8315 11.1049 23.6438C11.0153 23.4561 10.9821 23.2473 11.0091 23.0418C11.0361 22.8362 11.1222 22.6425 11.2574 22.4833L22.3689 9.39562ZM14.4831 22.0906H20.4255C20.4876 22.0906 20.5491 22.1034 20.6059 22.1282C20.6626 22.1529 20.7135 22.189 20.7552 22.2342C20.7968 22.2795 20.8284 22.3327 20.8478 22.3907C20.8672 22.4486 20.874 22.5099 20.8678 22.5705L20.2533 28.4654L27.5169 19.9094H21.5745C21.5124 19.9094 21.4509 19.8966 21.3942 19.8719C21.3374 19.8471 21.2865 19.811 21.2448 19.7658C21.2032 19.7205 21.1716 19.6673 21.1522 19.6093C21.1328 19.5514 21.126 19.4901 21.1322 19.4295L21.7467 13.5357L14.4831 22.0906Z" fill="#323232"/>
<g filter="url(#filter1_d_1_180)">
<path fill-rule="evenodd" clip-rule="evenodd" d="M20.9374 8.41211C21.6748 7.55096 23.111 8.13945 22.9943 9.25508L22.1706 17.0918H28.8337C29.0554 17.0918 29.2725 17.1534 29.4595 17.2693C29.6466 17.3852 29.7959 17.5505 29.8899 17.746C29.9839 17.9415 30.0188 18.1591 29.9904 18.3732C29.9621 18.5873 29.8716 18.7891 29.7298 18.9549L18.0626 32.5879C17.3252 33.449 15.889 32.8606 16.0057 31.7449L16.8294 23.9082H10.1663C9.94459 23.9082 9.72751 23.8466 9.54046 23.7307C9.35341 23.6148 9.20414 23.4495 9.11012 23.254C9.0161 23.0585 8.98123 22.8409 9.00959 22.6268C9.03794 22.4127 9.12836 22.2109 9.27024 22.0451L20.9374 8.41211ZM12.6572 21.6361H18.8968C18.962 21.6361 19.0265 21.6494 19.0861 21.6752C19.1458 21.7009 19.1992 21.7386 19.2429 21.7857C19.2867 21.8328 19.3198 21.8883 19.3402 21.9486C19.3605 22.0089 19.3677 22.0728 19.3612 22.136L18.716 28.2765L26.3428 19.3639H20.1032C20.038 19.3639 19.9735 19.3506 19.9139 19.3248C19.8542 19.2991 19.8008 19.2614 19.7571 19.2143C19.7133 19.1672 19.6802 19.1117 19.6598 19.0514C19.6395 18.9911 19.6323 18.9272 19.6388 18.864L20.284 12.7247L12.6572 21.6361Z" fill="#D9D9D9"/>
</g>
<path fill-rule="evenodd" clip-rule="evenodd" d="M9.5675 21.693L9.26832 22.0451C9.12745 22.211 9.03767 22.4128 9.00952 22.6269C8.98136 22.841 9.01598 23.0585 9.10933 23.254C9.20268 23.4495 9.3509 23.6149 9.53661 23.7307C9.72233 23.8466 9.93787 23.9082 10.158 23.9083H16.7737L15.9559 31.7449C15.84 32.8606 17.266 33.4491 17.9981 32.5879L27.2557 21.693H24.2405L18.6468 28.2765L19.2875 22.136C19.2939 22.0728 19.2868 22.009 19.2666 21.9486C19.2464 21.8883 19.2135 21.8328 19.17 21.7857C19.1357 21.7485 19.0955 21.7172 19.0509 21.693H9.5675Z" fill="#6AA39C"/>
<path fill-rule="evenodd" clip-rule="evenodd" d="M22.9497 9.25508C23.0655 8.13945 21.6395 7.55096 20.9074 8.41211L9.62244 21.693H19.1058C19.0939 21.6865 19.0818 21.6806 19.0693 21.6751C19.0101 21.6494 18.9461 21.6361 18.8813 21.6361H12.6861L20.2587 12.7247L19.6181 18.864C19.6116 18.9272 19.6187 18.9911 19.6389 19.0514C19.6592 19.1117 19.692 19.1672 19.7355 19.2143C19.7789 19.2614 19.832 19.2991 19.8911 19.3248C19.9503 19.3506 20.0144 19.3639 20.0791 19.3639H26.2743L24.2955 21.693H27.3107L29.6372 18.9549C29.7781 18.7891 29.8679 18.5873 29.896 18.3732C29.9242 18.1591 29.8896 17.9415 29.7962 17.746C29.7029 17.5505 29.5546 17.3852 29.3689 17.2693C29.1832 17.1534 28.9677 17.0918 28.7476 17.0918H22.1318L22.9497 9.25508Z" fill="#FFC151"/>
<defs>
<filter id="filter0_d_1_180" x="7.4" y="7.4" width="24.2" height="28.2" filterUnits="userSpaceOnUse" color-interpolation-filters="sRGB">
<feFlood flood-opacity="0" result="BackgroundImageFix"/>
<feColorMatrix in="SourceAlpha" type="matrix" values="0 0 0 0 0 0 0 0 0 0 0 0 0 0 0 0 0 0 127 0" result="hardAlpha"/>
<feOffset dy="1"/>
<feGaussianBlur stdDeviation="0.8"/>
<feComposite in2="hardAlpha" operator="out"/>
<feColorMatrix type="matrix" values="0 0 0 0 0 0 0 0 0 0 0 0 0 0 0 0 0 0 0.25 0"/>
<feBlend mode="normal" in2="BackgroundImageFix" result="effect1_dropShadow_1_180"/>
<feBlend mode="normal" in="SourceGraphic" in2="effect1_dropShadow_1_180" result="shape"/>
</filter>
<filter id="filter1_d_1_180" x="7.4" y="7.4" width="24.2" height="28.2" filterUnits="userSpaceOnUse" color-interpolation-filters="sRGB">
<feFlood flood-opacity="0" result="BackgroundImageFix"/>
<feColorMatrix in="SourceAlpha" type="matrix" values="0 0 0 0 0 0 0 0 0 0 0 0 0 0 0 0 0 0 127 0" result="hardAlpha"/>
<feOffset dy="1"/>
<feGaussianBlur stdDeviation="0.8"/>
<feComposite in2="hardAlpha" operator="out"/>
<feColorMatrix type="matrix" values="0 0 0 0 0 0 0 0 0 0 0 0 0 0 0 0 0 0 0.25 0"/>
<feBlend mode="normal" in2="BackgroundImageFix" result="effect1_dropShadow_1_180"/>
<feBlend mode="normal" in="SourceGraphic" in2="effect1_dropShadow_1_180" result="shape"/>
</filter>
</defs>
</svg>
