<svg width="25" height="29" viewBox="0 0 25 29" fill="none" xmlns="http://www.w3.org/2000/svg">
<path fill-rule="evenodd" clip-rule="evenodd" d="M15.3689 2.39562C16.0712 1.56892 17.439 2.13387 17.3279 3.20488L16.5434 10.7281H22.8893C23.1004 10.7282 23.3071 10.7873 23.4853 10.8985C23.6634 11.0098 23.8056 11.1685 23.8951 11.3562C23.9847 11.5439 24.0179 11.7527 23.9909 11.9582C23.9639 12.1638 23.8778 12.3575 23.7426 12.5167L12.6311 25.6044C11.9288 26.4311 10.561 25.8661 10.6721 24.7951L11.4566 17.2719H5.11074C4.89961 17.2718 4.69286 17.2127 4.51472 17.1015C4.33658 16.9902 4.19442 16.8315 4.10487 16.6438C4.01533 16.4561 3.98212 16.2473 4.00913 16.0418C4.03614 15.8362 4.12225 15.6425 4.25737 15.4833L15.3689 2.39562ZM7.48306 15.0906H13.4255C13.4876 15.0906 13.5491 15.1034 13.6059 15.1282C13.6626 15.1529 13.7135 15.189 13.7552 15.2342C13.7968 15.2795 13.8284 15.3327 13.8478 15.3907C13.8672 15.4486 13.874 15.5099 13.8678 15.5705L13.2533 21.4654L20.5169 12.9094H14.5745C14.5124 12.9094 14.4509 12.8966 14.3942 12.8719C14.3374 12.8471 14.2865 12.811 14.2448 12.7658C14.2032 12.7205 14.1716 12.6673 14.1522 12.6093C14.1328 12.5514 14.126 12.4901 14.1322 12.4295L14.7467 6.53568L7.48306 15.0906Z" fill="#323232"/>
<g filter="url(#filter0_d_1_181)">
<path fill-rule="evenodd" clip-rule="evenodd" d="M13.9374 1.41211C14.6748 0.550959 16.111 1.13945 15.9943 2.25508L15.1706 10.0918H21.8337C22.0554 10.0918 22.2725 10.1534 22.4595 10.2693C22.6466 10.3852 22.7959 10.5505 22.8899 10.746C22.9839 10.9415 23.0188 11.1591 22.9904 11.3732C22.9621 11.5873 22.8716 11.7891 22.7298 11.9549L11.0626 25.5879C10.3252 26.449 8.88902 25.8606 9.00569 24.7449L9.82939 16.9082H3.16628C2.94459 16.9082 2.72751 16.8466 2.54046 16.7307C2.35341 16.6148 2.20414 16.4495 2.11012 16.254C2.0161 16.0585 1.98123 15.8409 2.00959 15.6268C2.03794 15.4127 2.12836 15.2109 2.27024 15.0451L13.9374 1.41211ZM5.65722 14.6361H11.8968C11.962 14.6361 12.0265 14.6494 12.0861 14.6752C12.1458 14.7009 12.1992 14.7386 12.2429 14.7857C12.2867 14.8328 12.3198 14.8883 12.3402 14.9486C12.3605 15.0089 12.3677 15.0728 12.3612 15.136L11.716 21.2765L19.3428 12.3639H13.1032C13.038 12.3639 12.9735 12.3506 12.9139 12.3248C12.8542 12.2991 12.8008 12.2614 12.7571 12.2143C12.7133 12.1672 12.6802 12.1117 12.6598 12.0514C12.6395 11.9911 12.6323 11.9272 12.6388 11.864L13.284 5.72467L5.65722 14.6361Z" fill="#D9D9D9"/>
</g>
<path fill-rule="evenodd" clip-rule="evenodd" d="M2.5675 14.693L2.26832 15.0451C2.12745 15.211 2.03767 15.4128 2.00952 15.6269C1.98136 15.841 2.01598 16.0585 2.10933 16.254C2.20268 16.4495 2.3509 16.6149 2.53661 16.7307C2.72233 16.8466 2.93787 16.9082 3.15798 16.9083H9.77369L8.95585 24.7449C8.84001 25.8606 10.266 26.4491 10.9981 25.5879L20.2557 14.693H17.2405L11.6468 21.2765L12.2875 15.136C12.2939 15.0728 12.2868 15.009 12.2666 14.9486C12.2464 14.8883 12.2135 14.8328 12.17 14.7857C12.1357 14.7485 12.0955 14.7172 12.0509 14.693H2.5675Z" fill="#6AA39C"/>
<path fill-rule="evenodd" clip-rule="evenodd" d="M15.9497 2.25508C16.0655 1.13945 14.6395 0.550959 13.9074 1.41211L2.62244 14.693H12.1058C12.0939 14.6865 12.0818 14.6806 12.0693 14.6751C12.0101 14.6494 11.9461 14.6361 11.8813 14.6361H5.68612L13.2587 5.72467L12.6181 11.864C12.6116 11.9272 12.6187 11.9911 12.6389 12.0514C12.6592 12.1117 12.692 12.1672 12.7355 12.2143C12.7789 12.2614 12.832 12.2991 12.8911 12.3248C12.9503 12.3506 13.0144 12.3639 13.0791 12.3639H19.2743L17.2955 14.693H20.3107L22.6372 11.9549C22.7781 11.7891 22.8679 11.5873 22.896 11.3732C22.9242 11.1591 22.8896 10.9415 22.7962 10.746C22.7029 10.5505 22.5546 10.3852 22.3689 10.2693C22.1832 10.1534 21.9677 10.0918 21.7476 10.0918H15.1318L15.9497 2.25508Z" fill="#FFC151"/>
<defs>
<filter id="filter0_d_1_181" x="0.4" y="0.4" width="24.2" height="28.2" filterUnits="userSpaceOnUse" color-interpolation-filters="sRGB">
<feFlood flood-opacity="0" result="BackgroundImageFix"/>
<feColorMatrix in="SourceAlpha" type="matrix" values="0 0 0 0 0 0 0 0 0 0 0 0 0 0 0 0 0 0 127 0" result="hardAlpha"/>
<feOffset dy="1"/>
<feGaussianBlur stdDeviation="0.8"/>
<feComposite in2="hardAlpha" operator="out"/>
<feColorMatrix type="matrix" values="0 0 0 0 0 0 0 0 0 0 0 0 0 0 0 0 0 0 0.25 0"/>
<feBlend mode="normal" in2="BackgroundImageFix" result="effect1_dropShadow_1_181"/>
<feBlend mode="normal" in="SourceGraphic" in2="effect1_dropShadow_1_181" result="shape"/>
</filter>
</defs>
</svg>
