<svg width="203" height="57" viewBox="0 0 203 57" fill="none" xmlns="http://www.w3.org/2000/svg">
<rect x="0.5" y="13.5" width="39" height="39" rx="4.5" fill="black" stroke="#323232"/>
<path fill-rule="evenodd" clip-rule="evenodd" d="M22.3689 22.3956C23.0712 21.5689 24.439 22.1339 24.3279 23.2049L23.5434 30.7281H29.8893C30.1004 30.7282 30.3071 30.7873 30.4853 30.8985C30.6634 31.0098 30.8056 31.1685 30.8951 31.3562C30.9847 31.5439 31.0179 31.7527 30.9909 31.9582C30.9639 32.1638 30.8778 32.3575 30.7426 32.5167L19.6311 45.6044C18.9288 46.4311 17.561 45.8661 17.6721 44.7951L18.4566 37.2719H12.1107C11.8996 37.2718 11.6929 37.2127 11.5147 37.1015C11.3366 36.9902 11.1944 36.8315 11.1049 36.6438C11.0153 36.4561 10.9821 36.2473 11.0091 36.0418C11.0361 35.8362 11.1222 35.6425 11.2574 35.4833L22.3689 22.3956ZM14.4831 35.0906H20.4255C20.4876 35.0906 20.5491 35.1034 20.6059 35.1282C20.6626 35.1529 20.7135 35.189 20.7552 35.2342C20.7968 35.2795 20.8284 35.3327 20.8478 35.3907C20.8672 35.4486 20.874 35.5099 20.8678 35.5705L20.2533 41.4654L27.5169 32.9094H21.5745C21.5124 32.9094 21.4509 32.8966 21.3942 32.8719C21.3374 32.8471 21.2865 32.811 21.2448 32.7658C21.2032 32.7205 21.1716 32.6673 21.1522 32.6093C21.1328 32.5514 21.126 32.4901 21.1322 32.4295L21.7467 26.5357L14.4831 35.0906Z" fill="#323232"/>
<g filter="url(#filter0_d_31_62)">
<path fill-rule="evenodd" clip-rule="evenodd" d="M20.9374 21.4121C21.6748 20.551 23.111 21.1394 22.9943 22.2551L22.1706 30.0918H28.8337C29.0554 30.0918 29.2725 30.1534 29.4595 30.2693C29.6466 30.3852 29.7959 30.5505 29.8899 30.746C29.9839 30.9415 30.0188 31.1591 29.9904 31.3732C29.9621 31.5873 29.8716 31.7891 29.7298 31.9549L18.0626 45.5879C17.3252 46.449 15.889 45.8606 16.0057 44.7449L16.8294 36.9082H10.1663C9.94459 36.9082 9.72751 36.8466 9.54046 36.7307C9.35341 36.6148 9.20414 36.4495 9.11012 36.254C9.0161 36.0585 8.98123 35.8409 9.00959 35.6268C9.03794 35.4127 9.12836 35.2109 9.27024 35.0451L20.9374 21.4121ZM12.6572 34.6361H18.8968C18.962 34.6361 19.0265 34.6494 19.0861 34.6752C19.1458 34.7009 19.1992 34.7386 19.2429 34.7857C19.2867 34.8328 19.3198 34.8883 19.3402 34.9486C19.3605 35.0089 19.3677 35.0728 19.3612 35.136L18.716 41.2765L26.3428 32.3639H20.1032C20.038 32.3639 19.9735 32.3506 19.9139 32.3248C19.8542 32.2991 19.8008 32.2614 19.7571 32.2143C19.7133 32.1672 19.6802 32.1117 19.6598 32.0514C19.6395 31.9911 19.6323 31.9272 19.6388 31.864L20.284 25.7247L12.6572 34.6361Z" fill="#D9D9D9"/>
</g>
<path d="M75.08 26.24H71.048V25.328C71.048 24.848 71.016 24.544 70.952 24.416C70.92 24.256 70.76 24.064 70.472 23.84C70.184 23.616 69.96 23.488 69.8 23.456C69.64 23.392 69.272 23.36 68.696 23.36H62.264C61.688 23.36 61.32 23.392 61.16 23.456C61 23.488 60.776 23.616 60.488 23.84C60.2 24.064 60.024 24.256 59.96 24.416C59.928 24.544 59.912 24.848 59.912 25.328V38.672C59.912 39.152 59.928 39.472 59.96 39.632C60.024 39.76 60.2 39.936 60.488 40.16C60.776 40.384 61 40.528 61.16 40.592C61.32 40.624 61.688 40.64 62.264 40.64H68.696C69.272 40.64 69.64 40.624 69.8 40.592C69.96 40.528 70.184 40.384 70.472 40.16C70.76 39.936 70.92 39.76 70.952 39.632C71.016 39.472 71.048 39.152 71.048 38.672V37.76H75.08V39.68C75.08 40.64 74.696 41.44 73.928 42.08L72.776 43.04C72.008 43.68 71.24 44 70.472 44H60.488C59.72 44 58.952 43.68 58.184 43.04L57.032 42.08C56.264 41.44 55.88 40.64 55.88 39.68V24.32C55.88 23.36 56.264 22.56 57.032 21.92L58.184 20.96C58.952 20.32 59.72 20 60.488 20H70.472C71.24 20 72.008 20.32 72.776 20.96L73.928 21.92C74.696 22.56 75.08 23.36 75.08 24.32V26.24ZM82.2391 20H93.7591C94.5271 20 95.2951 20.32 96.0631 20.96L97.2151 21.92C97.9831 22.56 98.3671 23.36 98.3671 24.32V39.68C98.3671 40.64 97.9831 41.44 97.2151 42.08L96.0631 43.04C95.2951 43.68 94.5271 44 93.7591 44H82.2391C81.4711 44 80.7031 43.68 79.9351 43.04L78.7831 42.08C78.0151 41.44 77.6311 40.64 77.6311 39.68V24.32C77.6311 23.36 78.0151 22.56 78.7831 21.92L79.9351 20.96C80.7031 20.32 81.4711 20 82.2391 20ZM94.3351 38.672V25.328C94.3351 24.848 94.3031 24.544 94.2391 24.416C94.2071 24.256 94.0471 24.064 93.7591 23.84C93.4711 23.616 93.2471 23.488 93.0871 23.456C92.9271 23.392 92.5591 23.36 91.9831 23.36H84.0151C83.4391 23.36 83.0711 23.392 82.9111 23.456C82.7511 23.488 82.5271 23.616 82.2391 23.84C81.9511 24.064 81.7751 24.256 81.7111 24.416C81.6791 24.544 81.6631 24.848 81.6631 25.328V38.672C81.6631 39.152 81.6791 39.472 81.7111 39.632C81.7751 39.76 81.9511 39.936 82.2391 40.16C82.5271 40.384 82.7511 40.528 82.9111 40.592C83.0711 40.624 83.4391 40.64 84.0151 40.64H91.9831C92.5591 40.64 92.9271 40.624 93.0871 40.592C93.2471 40.528 93.4711 40.384 93.7591 40.16C94.0471 39.936 94.2071 39.76 94.2391 39.632C94.3031 39.472 94.3351 39.152 94.3351 38.672ZM101.161 20H102.841C103.417 20 103.801 20.048 103.993 20.144C104.217 20.208 104.521 20.4 104.905 20.72C105.417 21.136 105.673 21.536 105.673 21.92H105.865C105.865 21.536 106.217 21.136 106.921 20.72C107.497 20.368 107.881 20.16 108.073 20.096C108.297 20.032 108.697 20 109.273 20H113.689C114.457 20 115.225 20.32 115.993 20.96L117.145 21.92L114.265 24.32L113.689 23.84C113.401 23.616 113.177 23.488 113.017 23.456C112.857 23.392 112.489 23.36 111.913 23.36H109.849C109.273 23.36 108.873 23.392 108.649 23.456C108.457 23.52 108.073 23.728 107.497 24.08C106.921 24.432 106.585 24.688 106.489 24.848C106.393 25.008 106.345 25.328 106.345 25.808V44H102.313V25.328C102.313 24.848 102.281 24.544 102.217 24.416C102.185 24.256 102.025 24.064 101.737 23.84C101.449 23.616 101.273 23.44 101.209 23.312C101.177 23.152 101.161 22.832 101.161 22.352V20ZM118.224 20H119.904C120.48 20 120.864 20.048 121.056 20.144C121.28 20.208 121.584 20.4 121.968 20.72C122.48 21.136 122.736 21.536 122.736 21.92H122.928C122.928 21.536 123.28 21.136 123.984 20.72C124.56 20.368 124.944 20.16 125.136 20.096C125.36 20.032 125.76 20 126.336 20H130.752C131.52 20 132.288 20.32 133.056 20.96L134.208 21.92L131.328 24.32L130.752 23.84C130.464 23.616 130.24 23.488 130.08 23.456C129.92 23.392 129.552 23.36 128.976 23.36H126.912C126.336 23.36 125.936 23.392 125.712 23.456C125.52 23.52 125.136 23.728 124.56 24.08C123.984 24.432 123.648 24.688 123.552 24.848C123.456 25.008 123.408 25.328 123.408 25.808V44H119.376V25.328C119.376 24.848 119.344 24.544 119.28 24.416C119.248 24.256 119.088 24.064 118.8 23.84C118.512 23.616 118.336 23.44 118.272 23.312C118.24 23.152 118.224 22.832 118.224 22.352V20ZM152.182 42.08H151.99C151.99 42.464 151.638 42.864 150.934 43.28C150.358 43.632 149.958 43.84 149.734 43.904C149.542 43.968 149.158 44 148.582 44H140.374C139.606 44 138.838 43.68 138.07 43.04L136.918 42.08C136.15 41.44 135.766 40.64 135.766 39.68V33.92C135.766 32.96 136.15 32.16 136.918 31.52L138.07 30.56C138.838 29.92 139.606 29.6 140.374 29.6H148.966C149.574 29.6 149.958 29.632 150.118 29.696C150.278 29.728 150.486 29.856 150.742 30.08C151.126 30.4 151.318 30.72 151.318 31.04H151.51V25.328C151.51 24.848 151.478 24.544 151.414 24.416C151.382 24.256 151.222 24.064 150.934 23.84C150.646 23.616 150.422 23.488 150.262 23.456C150.102 23.392 149.734 23.36 149.158 23.36H141.382C140.806 23.36 140.406 23.408 140.182 23.504C139.99 23.568 139.606 23.84 139.03 24.32L136.15 21.92L137.302 20.96C137.878 20.48 138.262 20.208 138.454 20.144C138.678 20.048 139.078 20 139.654 20H150.934C151.702 20 152.47 20.32 153.238 20.96L154.39 21.92C155.158 22.56 155.542 23.36 155.542 24.32V38.672C155.542 39.152 155.558 39.472 155.59 39.632C155.654 39.76 155.83 39.936 156.118 40.16C156.406 40.384 156.566 40.576 156.598 40.736C156.662 40.864 156.694 41.168 156.694 41.648V44H155.014C154.438 44 154.038 43.968 153.814 43.904C153.622 43.808 153.334 43.6 152.95 43.28C152.438 42.864 152.182 42.464 152.182 42.08ZM139.798 34.928V38.672C139.798 39.152 139.814 39.472 139.846 39.632C139.91 39.76 140.086 39.936 140.374 40.16C140.662 40.384 140.886 40.528 141.046 40.592C141.206 40.624 141.574 40.64 142.15 40.64H148.006C148.582 40.64 148.966 40.608 149.158 40.544C149.382 40.48 149.782 40.272 150.358 39.92C150.934 39.568 151.27 39.312 151.366 39.152C151.462 38.992 151.51 38.672 151.51 38.192V34.928C151.51 34.448 151.478 34.144 151.414 34.016C151.382 33.856 151.222 33.664 150.934 33.44C150.646 33.216 150.422 33.088 150.262 33.056C150.102 32.992 149.734 32.96 149.158 32.96H142.15C141.574 32.96 141.206 32.992 141.046 33.056C140.886 33.088 140.662 33.216 140.374 33.44C140.086 33.664 139.91 33.856 139.846 34.016C139.814 34.144 139.798 34.448 139.798 34.928ZM172.722 23.36H165.858C165.282 23.36 164.914 23.392 164.754 23.456C164.594 23.488 164.37 23.616 164.082 23.84C163.794 24.064 163.618 24.256 163.554 24.416C163.522 24.544 163.506 24.848 163.506 25.328V38.672C163.506 39.152 163.522 39.472 163.554 39.632C163.618 39.76 163.794 39.936 164.082 40.16C164.37 40.384 164.594 40.528 164.754 40.592C164.914 40.624 165.282 40.64 165.858 40.64H172.674C173.25 40.64 173.634 40.608 173.826 40.544C174.05 40.48 174.45 40.272 175.026 39.92C175.602 39.568 175.938 39.312 176.034 39.152C176.13 38.992 176.178 38.672 176.178 38.192V26.24C176.178 25.6 175.794 24.96 175.026 24.32C174.258 23.68 173.49 23.36 172.722 23.36ZM173.25 44H164.082C163.314 44 162.546 43.68 161.778 43.04L160.626 42.08C159.858 41.44 159.474 40.64 159.474 39.68V24.32C159.474 23.36 159.858 22.56 160.626 21.92L161.778 20.96C162.546 20.32 163.314 20 164.082 20H172.53C173.298 20 174.066 20.32 174.834 20.96C175.602 21.728 175.986 22.208 175.986 22.4H176.178V8.48H180.21V38.672C180.21 39.152 180.226 39.472 180.258 39.632C180.322 39.76 180.498 39.936 180.786 40.16C181.074 40.384 181.234 40.576 181.266 40.736C181.33 40.864 181.362 41.168 181.362 41.648V44H179.682C179.106 44 178.706 43.968 178.482 43.904C178.29 43.808 178.002 43.6 177.618 43.28C177.106 42.864 176.85 42.464 176.85 42.08H176.658C176.658 42.464 176.306 42.864 175.602 43.28C175.026 43.632 174.626 43.84 174.402 43.904C174.21 43.968 173.826 44 173.25 44Z" fill="black"/>
<path d="M195.22 7.5H196.48V16.65C196.48 16.95 196.36 17.2 196.12 17.4L195.76 17.7C195.52 17.9 195.28 18 195.04 18H189.94C189.7 18 189.46 17.9 189.22 17.7L188.86 17.4C188.62 17.2 188.5 16.95 188.5 16.65V7.5H189.76V16.335C189.76 16.485 189.765 16.585 189.775 16.635C189.795 16.675 189.85 16.73 189.94 16.8C190.03 16.87 190.1 16.915 190.15 16.935C190.2 16.945 190.315 16.95 190.495 16.95H194.485C194.665 16.95 194.78 16.945 194.83 16.935C194.88 16.915 194.95 16.87 195.04 16.8C195.13 16.73 195.18 16.675 195.19 16.635C195.21 16.585 195.22 16.485 195.22 16.335V7.5ZM199.486 7.5H200.746V18H199.486V7.5Z" fill="black"/>
<path fill-rule="evenodd" clip-rule="evenodd" d="M9.5675 34.693L9.26832 35.0451C9.12745 35.211 9.03767 35.4128 9.00952 35.6269C8.98136 35.841 9.01598 36.0585 9.10933 36.254C9.20268 36.4495 9.3509 36.6149 9.53661 36.7307C9.72233 36.8466 9.93787 36.9082 10.158 36.9083H16.7737L15.9559 44.7449C15.84 45.8606 17.266 46.4491 17.9981 45.5879L27.2557 34.693H24.2405L18.6468 41.2765L19.2875 35.136C19.2939 35.0728 19.2868 35.009 19.2666 34.9486C19.2464 34.8883 19.2135 34.8328 19.17 34.7857C19.1357 34.7485 19.0955 34.7172 19.0509 34.693H9.5675Z" fill="#6AA39C"/>
<path fill-rule="evenodd" clip-rule="evenodd" d="M22.9497 22.2551C23.0655 21.1394 21.6395 20.551 20.9074 21.4121L9.62244 34.693H19.1058C19.0939 34.6865 19.0818 34.6806 19.0693 34.6751C19.0101 34.6494 18.9461 34.6361 18.8813 34.6361H12.6861L20.2587 25.7247L19.6181 31.864C19.6116 31.9272 19.6187 31.9911 19.6389 32.0514C19.6592 32.1117 19.692 32.1672 19.7355 32.2143C19.7789 32.2614 19.832 32.2991 19.8911 32.3248C19.9503 32.3506 20.0144 32.3639 20.0791 32.3639H26.2743L24.2955 34.693H27.3107L29.6372 31.9549C29.7781 31.7891 29.8679 31.5873 29.896 31.3732C29.9242 31.1591 29.8896 30.9415 29.7962 30.746C29.7028 30.5505 29.5546 30.3852 29.3689 30.2693C29.1832 30.1534 28.9677 30.0918 28.7476 30.0918H22.1318L22.9497 22.2551Z" fill="#FFC151"/>
<rect x="0.5" y="13.5" width="39" height="39" rx="4.5" fill="black" stroke="#323232"/>
<path fill-rule="evenodd" clip-rule="evenodd" d="M22.3689 22.3956C23.0712 21.5689 24.439 22.1339 24.3279 23.2049L23.5434 30.7281H29.8893C30.1004 30.7282 30.3071 30.7873 30.4853 30.8985C30.6634 31.0098 30.8056 31.1685 30.8951 31.3562C30.9847 31.5439 31.0179 31.7527 30.9909 31.9582C30.9639 32.1638 30.8778 32.3575 30.7426 32.5167L19.6311 45.6044C18.9288 46.4311 17.561 45.8661 17.6721 44.7951L18.4566 37.2719H12.1107C11.8996 37.2718 11.6929 37.2127 11.5147 37.1015C11.3366 36.9902 11.1944 36.8315 11.1049 36.6438C11.0153 36.4561 10.9821 36.2473 11.0091 36.0418C11.0361 35.8362 11.1222 35.6425 11.2574 35.4833L22.3689 22.3956ZM14.4831 35.0906H20.4255C20.4876 35.0906 20.5491 35.1034 20.6059 35.1282C20.6626 35.1529 20.7135 35.189 20.7552 35.2342C20.7968 35.2795 20.8284 35.3327 20.8478 35.3907C20.8672 35.4486 20.874 35.5099 20.8678 35.5705L20.2533 41.4654L27.5169 32.9094H21.5745C21.5124 32.9094 21.4509 32.8966 21.3942 32.8719C21.3374 32.8471 21.2865 32.811 21.2448 32.7658C21.2032 32.7205 21.1716 32.6673 21.1522 32.6093C21.1328 32.5514 21.126 32.4901 21.1322 32.4295L21.7467 26.5357L14.4831 35.0906Z" fill="#323232"/>
<g filter="url(#filter1_d_31_62)">
<path fill-rule="evenodd" clip-rule="evenodd" d="M20.9374 21.4121C21.6748 20.551 23.111 21.1394 22.9943 22.2551L22.1706 30.0918H28.8337C29.0554 30.0918 29.2725 30.1534 29.4595 30.2693C29.6466 30.3852 29.7959 30.5505 29.8899 30.746C29.9839 30.9415 30.0188 31.1591 29.9904 31.3732C29.9621 31.5873 29.8716 31.7891 29.7298 31.9549L18.0626 45.5879C17.3252 46.449 15.889 45.8606 16.0057 44.7449L16.8294 36.9082H10.1663C9.94459 36.9082 9.72751 36.8466 9.54046 36.7307C9.35341 36.6148 9.20414 36.4495 9.11012 36.254C9.0161 36.0585 8.98123 35.8409 9.00959 35.6268C9.03794 35.4127 9.12836 35.2109 9.27024 35.0451L20.9374 21.4121ZM12.6572 34.6361H18.8968C18.962 34.6361 19.0265 34.6494 19.0861 34.6752C19.1458 34.7009 19.1992 34.7386 19.2429 34.7857C19.2867 34.8328 19.3198 34.8883 19.3402 34.9486C19.3605 35.0089 19.3677 35.0728 19.3612 35.136L18.716 41.2765L26.3428 32.3639H20.1032C20.038 32.3639 19.9735 32.3506 19.9139 32.3248C19.8542 32.2991 19.8008 32.2614 19.7571 32.2143C19.7133 32.1672 19.6802 32.1117 19.6598 32.0514C19.6395 31.9911 19.6323 31.9272 19.6388 31.864L20.284 25.7247L12.6572 34.6361Z" fill="#D9D9D9"/>
</g>
<path d="M75.08 26.24H71.048V25.328C71.048 24.848 71.016 24.544 70.952 24.416C70.92 24.256 70.76 24.064 70.472 23.84C70.184 23.616 69.96 23.488 69.8 23.456C69.64 23.392 69.272 23.36 68.696 23.36H62.264C61.688 23.36 61.32 23.392 61.16 23.456C61 23.488 60.776 23.616 60.488 23.84C60.2 24.064 60.024 24.256 59.96 24.416C59.928 24.544 59.912 24.848 59.912 25.328V38.672C59.912 39.152 59.928 39.472 59.96 39.632C60.024 39.76 60.2 39.936 60.488 40.16C60.776 40.384 61 40.528 61.16 40.592C61.32 40.624 61.688 40.64 62.264 40.64H68.696C69.272 40.64 69.64 40.624 69.8 40.592C69.96 40.528 70.184 40.384 70.472 40.16C70.76 39.936 70.92 39.76 70.952 39.632C71.016 39.472 71.048 39.152 71.048 38.672V37.76H75.08V39.68C75.08 40.64 74.696 41.44 73.928 42.08L72.776 43.04C72.008 43.68 71.24 44 70.472 44H60.488C59.72 44 58.952 43.68 58.184 43.04L57.032 42.08C56.264 41.44 55.88 40.64 55.88 39.68V24.32C55.88 23.36 56.264 22.56 57.032 21.92L58.184 20.96C58.952 20.32 59.72 20 60.488 20H70.472C71.24 20 72.008 20.32 72.776 20.96L73.928 21.92C74.696 22.56 75.08 23.36 75.08 24.32V26.24ZM82.2391 20H93.7591C94.5271 20 95.2951 20.32 96.0631 20.96L97.2151 21.92C97.9831 22.56 98.3671 23.36 98.3671 24.32V39.68C98.3671 40.64 97.9831 41.44 97.2151 42.08L96.0631 43.04C95.2951 43.68 94.5271 44 93.7591 44H82.2391C81.4711 44 80.7031 43.68 79.9351 43.04L78.7831 42.08C78.0151 41.44 77.6311 40.64 77.6311 39.68V24.32C77.6311 23.36 78.0151 22.56 78.7831 21.92L79.9351 20.96C80.7031 20.32 81.4711 20 82.2391 20ZM94.3351 38.672V25.328C94.3351 24.848 94.3031 24.544 94.2391 24.416C94.2071 24.256 94.0471 24.064 93.7591 23.84C93.4711 23.616 93.2471 23.488 93.0871 23.456C92.9271 23.392 92.5591 23.36 91.9831 23.36H84.0151C83.4391 23.36 83.0711 23.392 82.9111 23.456C82.7511 23.488 82.5271 23.616 82.2391 23.84C81.9511 24.064 81.7751 24.256 81.7111 24.416C81.6791 24.544 81.6631 24.848 81.6631 25.328V38.672C81.6631 39.152 81.6791 39.472 81.7111 39.632C81.7751 39.76 81.9511 39.936 82.2391 40.16C82.5271 40.384 82.7511 40.528 82.9111 40.592C83.0711 40.624 83.4391 40.64 84.0151 40.64H91.9831C92.5591 40.64 92.9271 40.624 93.0871 40.592C93.2471 40.528 93.4711 40.384 93.7591 40.16C94.0471 39.936 94.2071 39.76 94.2391 39.632C94.3031 39.472 94.3351 39.152 94.3351 38.672ZM101.161 20H102.841C103.417 20 103.801 20.048 103.993 20.144C104.217 20.208 104.521 20.4 104.905 20.72C105.417 21.136 105.673 21.536 105.673 21.92H105.865C105.865 21.536 106.217 21.136 106.921 20.72C107.497 20.368 107.881 20.16 108.073 20.096C108.297 20.032 108.697 20 109.273 20H113.689C114.457 20 115.225 20.32 115.993 20.96L117.145 21.92L114.265 24.32L113.689 23.84C113.401 23.616 113.177 23.488 113.017 23.456C112.857 23.392 112.489 23.36 111.913 23.36H109.849C109.273 23.36 108.873 23.392 108.649 23.456C108.457 23.52 108.073 23.728 107.497 24.08C106.921 24.432 106.585 24.688 106.489 24.848C106.393 25.008 106.345 25.328 106.345 25.808V44H102.313V25.328C102.313 24.848 102.281 24.544 102.217 24.416C102.185 24.256 102.025 24.064 101.737 23.84C101.449 23.616 101.273 23.44 101.209 23.312C101.177 23.152 101.161 22.832 101.161 22.352V20ZM118.224 20H119.904C120.48 20 120.864 20.048 121.056 20.144C121.28 20.208 121.584 20.4 121.968 20.72C122.48 21.136 122.736 21.536 122.736 21.92H122.928C122.928 21.536 123.28 21.136 123.984 20.72C124.56 20.368 124.944 20.16 125.136 20.096C125.36 20.032 125.76 20 126.336 20H130.752C131.52 20 132.288 20.32 133.056 20.96L134.208 21.92L131.328 24.32L130.752 23.84C130.464 23.616 130.24 23.488 130.08 23.456C129.92 23.392 129.552 23.36 128.976 23.36H126.912C126.336 23.36 125.936 23.392 125.712 23.456C125.52 23.52 125.136 23.728 124.56 24.08C123.984 24.432 123.648 24.688 123.552 24.848C123.456 25.008 123.408 25.328 123.408 25.808V44H119.376V25.328C119.376 24.848 119.344 24.544 119.28 24.416C119.248 24.256 119.088 24.064 118.8 23.84C118.512 23.616 118.336 23.44 118.272 23.312C118.24 23.152 118.224 22.832 118.224 22.352V20ZM152.182 42.08H151.99C151.99 42.464 151.638 42.864 150.934 43.28C150.358 43.632 149.958 43.84 149.734 43.904C149.542 43.968 149.158 44 148.582 44H140.374C139.606 44 138.838 43.68 138.07 43.04L136.918 42.08C136.15 41.44 135.766 40.64 135.766 39.68V33.92C135.766 32.96 136.15 32.16 136.918 31.52L138.07 30.56C138.838 29.92 139.606 29.6 140.374 29.6H148.966C149.574 29.6 149.958 29.632 150.118 29.696C150.278 29.728 150.486 29.856 150.742 30.08C151.126 30.4 151.318 30.72 151.318 31.04H151.51V25.328C151.51 24.848 151.478 24.544 151.414 24.416C151.382 24.256 151.222 24.064 150.934 23.84C150.646 23.616 150.422 23.488 150.262 23.456C150.102 23.392 149.734 23.36 149.158 23.36H141.382C140.806 23.36 140.406 23.408 140.182 23.504C139.99 23.568 139.606 23.84 139.03 24.32L136.15 21.92L137.302 20.96C137.878 20.48 138.262 20.208 138.454 20.144C138.678 20.048 139.078 20 139.654 20H150.934C151.702 20 152.47 20.32 153.238 20.96L154.39 21.92C155.158 22.56 155.542 23.36 155.542 24.32V38.672C155.542 39.152 155.558 39.472 155.59 39.632C155.654 39.76 155.83 39.936 156.118 40.16C156.406 40.384 156.566 40.576 156.598 40.736C156.662 40.864 156.694 41.168 156.694 41.648V44H155.014C154.438 44 154.038 43.968 153.814 43.904C153.622 43.808 153.334 43.6 152.95 43.28C152.438 42.864 152.182 42.464 152.182 42.08ZM139.798 34.928V38.672C139.798 39.152 139.814 39.472 139.846 39.632C139.91 39.76 140.086 39.936 140.374 40.16C140.662 40.384 140.886 40.528 141.046 40.592C141.206 40.624 141.574 40.64 142.15 40.64H148.006C148.582 40.64 148.966 40.608 149.158 40.544C149.382 40.48 149.782 40.272 150.358 39.92C150.934 39.568 151.27 39.312 151.366 39.152C151.462 38.992 151.51 38.672 151.51 38.192V34.928C151.51 34.448 151.478 34.144 151.414 34.016C151.382 33.856 151.222 33.664 150.934 33.44C150.646 33.216 150.422 33.088 150.262 33.056C150.102 32.992 149.734 32.96 149.158 32.96H142.15C141.574 32.96 141.206 32.992 141.046 33.056C140.886 33.088 140.662 33.216 140.374 33.44C140.086 33.664 139.91 33.856 139.846 34.016C139.814 34.144 139.798 34.448 139.798 34.928ZM172.722 23.36H165.858C165.282 23.36 164.914 23.392 164.754 23.456C164.594 23.488 164.37 23.616 164.082 23.84C163.794 24.064 163.618 24.256 163.554 24.416C163.522 24.544 163.506 24.848 163.506 25.328V38.672C163.506 39.152 163.522 39.472 163.554 39.632C163.618 39.76 163.794 39.936 164.082 40.16C164.37 40.384 164.594 40.528 164.754 40.592C164.914 40.624 165.282 40.64 165.858 40.64H172.674C173.25 40.64 173.634 40.608 173.826 40.544C174.05 40.48 174.45 40.272 175.026 39.92C175.602 39.568 175.938 39.312 176.034 39.152C176.13 38.992 176.178 38.672 176.178 38.192V26.24C176.178 25.6 175.794 24.96 175.026 24.32C174.258 23.68 173.49 23.36 172.722 23.36ZM173.25 44H164.082C163.314 44 162.546 43.68 161.778 43.04L160.626 42.08C159.858 41.44 159.474 40.64 159.474 39.68V24.32C159.474 23.36 159.858 22.56 160.626 21.92L161.778 20.96C162.546 20.32 163.314 20 164.082 20H172.53C173.298 20 174.066 20.32 174.834 20.96C175.602 21.728 175.986 22.208 175.986 22.4H176.178V8.48H180.21V38.672C180.21 39.152 180.226 39.472 180.258 39.632C180.322 39.76 180.498 39.936 180.786 40.16C181.074 40.384 181.234 40.576 181.266 40.736C181.33 40.864 181.362 41.168 181.362 41.648V44H179.682C179.106 44 178.706 43.968 178.482 43.904C178.29 43.808 178.002 43.6 177.618 43.28C177.106 42.864 176.85 42.464 176.85 42.08H176.658C176.658 42.464 176.306 42.864 175.602 43.28C175.026 43.632 174.626 43.84 174.402 43.904C174.21 43.968 173.826 44 173.25 44Z" fill="black"/>
<path fill-rule="evenodd" clip-rule="evenodd" d="M9.5675 34.693L9.26832 35.0451C9.12745 35.211 9.03767 35.4128 9.00952 35.6269C8.98136 35.841 9.01598 36.0585 9.10933 36.254C9.20268 36.4495 9.3509 36.6149 9.53661 36.7307C9.72233 36.8466 9.93787 36.9082 10.158 36.9083H16.7737L15.9559 44.7449C15.84 45.8606 17.266 46.4491 17.9981 45.5879L27.2557 34.693H24.2405L18.6468 41.2765L19.2875 35.136C19.2939 35.0728 19.2868 35.009 19.2666 34.9486C19.2464 34.8883 19.2135 34.8328 19.17 34.7857C19.1357 34.7485 19.0955 34.7172 19.0509 34.693H9.5675Z" fill="#6AA39C"/>
<path fill-rule="evenodd" clip-rule="evenodd" d="M22.9497 22.2551C23.0655 21.1394 21.6395 20.551 20.9074 21.4121L9.62244 34.693H19.1058C19.0939 34.6865 19.0818 34.6806 19.0693 34.6751C19.0101 34.6494 18.9461 34.6361 18.8813 34.6361H12.6861L20.2587 25.7247L19.6181 31.864C19.6116 31.9272 19.6187 31.9911 19.6389 32.0514C19.6592 32.1117 19.692 32.1672 19.7355 32.2143C19.7789 32.2614 19.832 32.2991 19.8911 32.3248C19.9503 32.3506 20.0144 32.3639 20.0791 32.3639H26.2743L24.2955 34.693H27.3107L29.6372 31.9549C29.7781 31.7891 29.8679 31.5873 29.896 31.3732C29.9242 31.1591 29.8896 30.9415 29.7962 30.746C29.7028 30.5505 29.5546 30.3852 29.3689 30.2693C29.1832 30.1534 28.9677 30.0918 28.7476 30.0918H22.1318L22.9497 22.2551Z" fill="#FFC151"/>
<defs>
<filter id="filter0_d_31_62" x="7.4" y="20.4" width="24.2" height="28.2" filterUnits="userSpaceOnUse" color-interpolation-filters="sRGB">
<feFlood flood-opacity="0" result="BackgroundImageFix"/>
<feColorMatrix in="SourceAlpha" type="matrix" values="0 0 0 0 0 0 0 0 0 0 0 0 0 0 0 0 0 0 127 0" result="hardAlpha"/>
<feOffset dy="1"/>
<feGaussianBlur stdDeviation="0.8"/>
<feComposite in2="hardAlpha" operator="out"/>
<feColorMatrix type="matrix" values="0 0 0 0 0 0 0 0 0 0 0 0 0 0 0 0 0 0 0.25 0"/>
<feBlend mode="normal" in2="BackgroundImageFix" result="effect1_dropShadow_31_62"/>
<feBlend mode="normal" in="SourceGraphic" in2="effect1_dropShadow_31_62" result="shape"/>
</filter>
<filter id="filter1_d_31_62" x="7.4" y="20.4" width="24.2" height="28.2" filterUnits="userSpaceOnUse" color-interpolation-filters="sRGB">
<feFlood flood-opacity="0" result="BackgroundImageFix"/>
<feColorMatrix in="SourceAlpha" type="matrix" values="0 0 0 0 0 0 0 0 0 0 0 0 0 0 0 0 0 0 127 0" result="hardAlpha"/>
<feOffset dy="1"/>
<feGaussianBlur stdDeviation="0.8"/>
<feComposite in2="hardAlpha" operator="out"/>
<feColorMatrix type="matrix" values="0 0 0 0 0 0 0 0 0 0 0 0 0 0 0 0 0 0 0.25 0"/>
<feBlend mode="normal" in2="BackgroundImageFix" result="effect1_dropShadow_31_62"/>
<feBlend mode="normal" in="SourceGraphic" in2="effect1_dropShadow_31_62" result="shape"/>
</filter>
</defs>
</svg>
