<svg width="150" height="57" viewBox="0 0 150 57" fill="none" xmlns="http://www.w3.org/2000/svg">
<path d="M142.22 7.5H143.48V16.65C143.48 16.95 143.36 17.2 143.12 17.4L142.76 17.7C142.52 17.9 142.28 18 142.04 18H136.94C136.7 18 136.46 17.9 136.22 17.7L135.86 17.4C135.62 17.2 135.5 16.95 135.5 16.65V7.5H136.76V16.335C136.76 16.485 136.765 16.585 136.775 16.635C136.795 16.675 136.85 16.73 136.94 16.8C137.03 16.87 137.1 16.915 137.15 16.935C137.2 16.945 137.315 16.95 137.495 16.95H141.485C141.665 16.95 141.78 16.945 141.83 16.935C141.88 16.915 141.95 16.87 142.04 16.8C142.13 16.73 142.18 16.675 142.19 16.635C142.21 16.585 142.22 16.485 142.22 16.335V7.5ZM146.486 7.5H147.746V18H146.486V7.5Z" fill="white"/>
<path d="M22.08 26.24H18.048V25.328C18.048 24.848 18.016 24.544 17.952 24.416C17.92 24.256 17.76 24.064 17.472 23.84C17.184 23.616 16.96 23.488 16.8 23.456C16.64 23.392 16.272 23.36 15.696 23.36H9.264C8.688 23.36 8.32 23.392 8.16 23.456C8 23.488 7.776 23.616 7.488 23.84C7.2 24.064 7.024 24.256 6.96 24.416C6.928 24.544 6.912 24.848 6.912 25.328V38.672C6.912 39.152 6.928 39.472 6.96 39.632C7.024 39.76 7.2 39.936 7.488 40.16C7.776 40.384 8 40.528 8.16 40.592C8.32 40.624 8.688 40.64 9.264 40.64H15.696C16.272 40.64 16.64 40.624 16.8 40.592C16.96 40.528 17.184 40.384 17.472 40.16C17.76 39.936 17.92 39.76 17.952 39.632C18.016 39.472 18.048 39.152 18.048 38.672V37.76H22.08V39.68C22.08 40.64 21.696 41.44 20.928 42.08L19.776 43.04C19.008 43.68 18.24 44 17.472 44H7.488C6.72 44 5.952 43.68 5.184 43.04L4.032 42.08C3.264 41.44 2.88 40.64 2.88 39.68V24.32C2.88 23.36 3.264 22.56 4.032 21.92L5.184 20.96C5.952 20.32 6.72 20 7.488 20H17.472C18.24 20 19.008 20.32 19.776 20.96L20.928 21.92C21.696 22.56 22.08 23.36 22.08 24.32V26.24ZM29.2391 20H40.7591C41.5271 20 42.2951 20.32 43.0631 20.96L44.2151 21.92C44.9831 22.56 45.3671 23.36 45.3671 24.32V39.68C45.3671 40.64 44.9831 41.44 44.2151 42.08L43.0631 43.04C42.2951 43.68 41.5271 44 40.7591 44H29.2391C28.4711 44 27.7031 43.68 26.9351 43.04L25.7831 42.08C25.0151 41.44 24.6311 40.64 24.6311 39.68V24.32C24.6311 23.36 25.0151 22.56 25.7831 21.92L26.9351 20.96C27.7031 20.32 28.4711 20 29.2391 20ZM41.3351 38.672V25.328C41.3351 24.848 41.3031 24.544 41.2391 24.416C41.2071 24.256 41.0471 24.064 40.7591 23.84C40.4711 23.616 40.2471 23.488 40.0871 23.456C39.9271 23.392 39.5591 23.36 38.9831 23.36H31.0151C30.4391 23.36 30.0711 23.392 29.9111 23.456C29.7511 23.488 29.5271 23.616 29.2391 23.84C28.9511 24.064 28.7751 24.256 28.7111 24.416C28.6791 24.544 28.6631 24.848 28.6631 25.328V38.672C28.6631 39.152 28.6791 39.472 28.7111 39.632C28.7751 39.76 28.9511 39.936 29.2391 40.16C29.5271 40.384 29.7511 40.528 29.9111 40.592C30.0711 40.624 30.4391 40.64 31.0151 40.64H38.9831C39.5591 40.64 39.9271 40.624 40.0871 40.592C40.2471 40.528 40.4711 40.384 40.7591 40.16C41.0471 39.936 41.2071 39.76 41.2391 39.632C41.3031 39.472 41.3351 39.152 41.3351 38.672ZM48.1613 20H49.8413C50.4173 20 50.8013 20.048 50.9933 20.144C51.2173 20.208 51.5213 20.4 51.9053 20.72C52.4173 21.136 52.6733 21.536 52.6733 21.92H52.8653C52.8653 21.536 53.2173 21.136 53.9213 20.72C54.4973 20.368 54.8813 20.16 55.0733 20.096C55.2973 20.032 55.6973 20 56.2733 20H60.6893C61.4573 20 62.2253 20.32 62.9933 20.96L64.1453 21.92L61.2653 24.32L60.6893 23.84C60.4013 23.616 60.1773 23.488 60.0173 23.456C59.8573 23.392 59.4893 23.36 58.9133 23.36H56.8493C56.2733 23.36 55.8733 23.392 55.6493 23.456C55.4573 23.52 55.0733 23.728 54.4973 24.08C53.9213 24.432 53.5853 24.688 53.4893 24.848C53.3933 25.008 53.3453 25.328 53.3453 25.808V44H49.3133V25.328C49.3133 24.848 49.2813 24.544 49.2173 24.416C49.1853 24.256 49.0253 24.064 48.7373 23.84C48.4493 23.616 48.2733 23.44 48.2093 23.312C48.1773 23.152 48.1613 22.832 48.1613 22.352V20ZM65.2238 20H66.9038C67.4798 20 67.8638 20.048 68.0558 20.144C68.2798 20.208 68.5838 20.4 68.9678 20.72C69.4798 21.136 69.7358 21.536 69.7358 21.92H69.9278C69.9278 21.536 70.2798 21.136 70.9838 20.72C71.5598 20.368 71.9438 20.16 72.1358 20.096C72.3598 20.032 72.7598 20 73.3358 20H77.7518C78.5198 20 79.2878 20.32 80.0558 20.96L81.2078 21.92L78.3278 24.32L77.7518 23.84C77.4638 23.616 77.2398 23.488 77.0798 23.456C76.9198 23.392 76.5518 23.36 75.9758 23.36H73.9118C73.3358 23.36 72.9358 23.392 72.7118 23.456C72.5198 23.52 72.1358 23.728 71.5598 24.08C70.9838 24.432 70.6478 24.688 70.5518 24.848C70.4558 25.008 70.4078 25.328 70.4078 25.808V44H66.3758V25.328C66.3758 24.848 66.3438 24.544 66.2798 24.416C66.2478 24.256 66.0878 24.064 65.7998 23.84C65.5118 23.616 65.3358 23.44 65.2718 23.312C65.2398 23.152 65.2238 22.832 65.2238 22.352V20ZM99.1823 42.08H98.9903C98.9903 42.464 98.6383 42.864 97.9343 43.28C97.3583 43.632 96.9583 43.84 96.7343 43.904C96.5423 43.968 96.1583 44 95.5823 44H87.3743C86.6063 44 85.8383 43.68 85.0703 43.04L83.9183 42.08C83.1503 41.44 82.7663 40.64 82.7663 39.68V33.92C82.7663 32.96 83.1503 32.16 83.9183 31.52L85.0703 30.56C85.8383 29.92 86.6063 29.6 87.3743 29.6H95.9663C96.5743 29.6 96.9583 29.632 97.1183 29.696C97.2783 29.728 97.4863 29.856 97.7423 30.08C98.1263 30.4 98.3183 30.72 98.3183 31.04H98.5103V25.328C98.5103 24.848 98.4783 24.544 98.4143 24.416C98.3823 24.256 98.2223 24.064 97.9343 23.84C97.6463 23.616 97.4223 23.488 97.2623 23.456C97.1023 23.392 96.7343 23.36 96.1583 23.36H88.3823C87.8063 23.36 87.4063 23.408 87.1823 23.504C86.9903 23.568 86.6063 23.84 86.0303 24.32L83.1503 21.92L84.3023 20.96C84.8783 20.48 85.2623 20.208 85.4543 20.144C85.6783 20.048 86.0783 20 86.6543 20H97.9343C98.7023 20 99.4703 20.32 100.238 20.96L101.39 21.92C102.158 22.56 102.542 23.36 102.542 24.32V38.672C102.542 39.152 102.558 39.472 102.59 39.632C102.654 39.76 102.83 39.936 103.118 40.16C103.406 40.384 103.566 40.576 103.598 40.736C103.662 40.864 103.694 41.168 103.694 41.648V44H102.014C101.438 44 101.038 43.968 100.814 43.904C100.622 43.808 100.334 43.6 99.9503 43.28C99.4383 42.864 99.1823 42.464 99.1823 42.08ZM86.7983 34.928V38.672C86.7983 39.152 86.8143 39.472 86.8463 39.632C86.9103 39.76 87.0863 39.936 87.3743 40.16C87.6623 40.384 87.8863 40.528 88.0463 40.592C88.2063 40.624 88.5743 40.64 89.1503 40.64H95.0063C95.5823 40.64 95.9663 40.608 96.1583 40.544C96.3823 40.48 96.7823 40.272 97.3583 39.92C97.9343 39.568 98.2703 39.312 98.3663 39.152C98.4623 38.992 98.5103 38.672 98.5103 38.192V34.928C98.5103 34.448 98.4783 34.144 98.4143 34.016C98.3823 33.856 98.2223 33.664 97.9343 33.44C97.6463 33.216 97.4223 33.088 97.2623 33.056C97.1023 32.992 96.7343 32.96 96.1583 32.96H89.1503C88.5743 32.96 88.2063 32.992 88.0463 33.056C87.8863 33.088 87.6623 33.216 87.3743 33.44C87.0863 33.664 86.9103 33.856 86.8463 34.016C86.8143 34.144 86.7983 34.448 86.7983 34.928ZM119.722 23.36H112.858C112.282 23.36 111.914 23.392 111.754 23.456C111.594 23.488 111.37 23.616 111.082 23.84C110.794 24.064 110.618 24.256 110.554 24.416C110.522 24.544 110.506 24.848 110.506 25.328V38.672C110.506 39.152 110.522 39.472 110.554 39.632C110.618 39.76 110.794 39.936 111.082 40.16C111.37 40.384 111.594 40.528 111.754 40.592C111.914 40.624 112.282 40.64 112.858 40.64H119.674C120.25 40.64 120.634 40.608 120.826 40.544C121.05 40.48 121.45 40.272 122.026 39.92C122.602 39.568 122.938 39.312 123.034 39.152C123.13 38.992 123.178 38.672 123.178 38.192V26.24C123.178 25.6 122.794 24.96 122.026 24.32C121.258 23.68 120.49 23.36 119.722 23.36ZM120.25 44H111.082C110.314 44 109.546 43.68 108.778 43.04L107.626 42.08C106.858 41.44 106.474 40.64 106.474 39.68V24.32C106.474 23.36 106.858 22.56 107.626 21.92L108.778 20.96C109.546 20.32 110.314 20 111.082 20H119.53C120.298 20 121.066 20.32 121.834 20.96C122.602 21.728 122.986 22.208 122.986 22.4H123.178V8.48H127.21V38.672C127.21 39.152 127.226 39.472 127.258 39.632C127.322 39.76 127.498 39.936 127.786 40.16C128.074 40.384 128.234 40.576 128.266 40.736C128.33 40.864 128.362 41.168 128.362 41.648V44H126.682C126.106 44 125.706 43.968 125.482 43.904C125.29 43.808 125.002 43.6 124.618 43.28C124.106 42.864 123.85 42.464 123.85 42.08H123.658C123.658 42.464 123.306 42.864 122.602 43.28C122.026 43.632 121.626 43.84 121.402 43.904C121.21 43.968 120.826 44 120.25 44Z" fill="white"/>
</svg>
